<svg width="805" height="746" viewBox="0 0 805 746" fill="none" xmlns="http://www.w3.org/2000/svg">
<g filter="url(#filter0_d_18_24950)">
<path d="M165.4 493L198.7 253H275.5L308.8 493H299.65L267.7 260.275H206.5L174.55 493H165.4ZM201.7 493L209.8 434.2H264.4L272.5 493H263.2L257.2 441.4H217L211 493H201.7ZM183.4 493L211.9 267.625H262.3L290.8 493H281.5L273.1 427H201.1L192.7 493H183.4ZM201.7 419.8H272.2L264.25 350.425L254.5 274.9H219.7L209.65 350.425L201.7 419.8ZM211.9 412.6L218.275 350.425L225.7 281.65H248.5L256.225 350.425L262.3 412.6H211.9ZM221.2 405.4H253L247.9 350.425L241.9 289H232.3L226.3 350.425L221.2 405.4ZM395.527 496C373.727 496 357.577 491.475 347.077 482.425C336.627 473.325 330.977 457.75 330.127 435.7C330.027 433.15 329.977 429.65 329.977 425.2C329.977 420.75 330.077 416.4 330.277 412.15C330.477 407.9 330.827 404.85 331.327 403H340.252C339.902 404.4 339.602 406.95 339.352 410.65C339.152 414.3 339.027 418.35 338.977 422.8C338.927 427.25 338.977 431.425 339.127 435.325C339.877 454.925 344.777 468.75 353.827 476.8C362.877 484.8 376.777 488.8 395.527 488.8C415.127 488.8 429.327 484.675 438.127 476.425C446.927 468.125 451.727 454.425 452.527 435.325C452.627 432.775 452.702 430.4 452.752 428.2C452.852 426 452.902 423.8 452.902 421.6C452.952 419.35 452.927 416.875 452.827 414.175C452.327 401.325 448.502 390.6 441.352 382C434.252 373.35 424.352 367.275 411.652 363.775L381.052 355.3C377.752 354.35 374.902 352.825 372.502 350.725C370.152 348.625 368.327 345.95 367.027 342.7C365.777 339.45 365.077 335.675 364.927 331.375C364.777 327.225 364.702 323.775 364.702 321.025C364.702 318.225 364.777 314.85 364.927 310.9C365.377 299.6 367.977 291.425 372.727 286.375C377.527 281.325 385.127 278.8 395.527 278.8C405.277 278.8 412.427 281.275 416.977 286.225C421.577 291.175 424.127 299.475 424.627 311.125C424.777 314.925 424.777 319.9 424.627 326.05C424.527 332.2 424.352 337.85 424.102 343H415.102C415.352 337.55 415.527 331.95 415.627 326.2C415.777 320.4 415.777 315.45 415.627 311.35C415.277 301.55 413.352 294.875 409.852 291.325C406.402 287.775 401.627 286 395.527 286C388.777 286 383.577 287.85 379.927 291.55C376.277 295.2 374.252 302 373.852 311.95C373.752 314.85 373.702 317.9 373.702 321.1C373.752 324.25 373.827 327.575 373.927 331.075C374.027 333.825 374.427 336.25 375.127 338.35C375.877 340.4 376.927 342.1 378.277 343.45C379.627 344.75 381.227 345.675 383.077 346.225L413.527 355C428.477 359.25 440.127 366.475 448.477 376.675C456.827 386.825 461.277 399.2 461.827 413.8C461.927 416.1 461.952 418.5 461.902 421C461.902 423.5 461.852 426 461.752 428.5C461.702 431 461.627 433.4 461.527 435.7C460.627 457.2 455.077 472.625 444.877 481.975C434.727 491.325 418.277 496 395.527 496ZM395.527 481.6C379.727 481.6 368.052 478.1 360.502 471.1C352.952 464.05 348.827 452.025 348.127 435.025C348.027 431.725 347.977 427.925 347.977 423.625C348.027 419.325 348.127 415.275 348.277 411.475C348.477 407.625 348.752 404.8 349.102 403H358.027C357.727 405.2 357.477 408.125 357.277 411.775C357.127 415.375 357.027 419.225 356.977 423.325C356.977 427.375 357.027 431.175 357.127 434.725C357.677 449.025 360.952 459.225 366.952 465.325C373.002 471.375 382.527 474.4 395.527 474.4C409.277 474.4 419.077 471.225 424.927 464.875C430.777 458.525 433.977 448.425 434.527 434.575C434.627 432.025 434.702 429.725 434.752 427.675C434.852 425.575 434.902 423.525 434.902 421.525C434.952 419.475 434.927 417.275 434.827 414.925C434.627 409.175 433.427 404.05 431.227 399.55C429.077 395.05 426.027 391.275 422.077 388.225C418.177 385.125 413.452 382.85 407.902 381.4L377.002 373.15C371.502 371.65 366.527 369.2 362.077 365.8C357.627 362.35 354.052 357.825 351.352 352.225C348.652 346.625 347.177 339.85 346.927 331.9C346.827 328.8 346.752 326.15 346.702 323.95C346.702 321.75 346.702 319.625 346.702 317.575C346.752 315.475 346.827 313.125 346.927 310.525C347.627 293.775 351.827 281.9 359.527 274.9C367.227 267.9 379.227 264.4 395.527 264.4C411.827 264.4 423.577 268.025 430.777 275.275C438.027 282.475 441.977 294.275 442.627 310.675C442.777 314.475 442.777 319.6 442.627 326.05C442.527 332.45 442.327 338.1 442.027 343H433.102C433.352 337.8 433.527 332.075 433.627 325.825C433.777 319.575 433.777 314.625 433.627 310.975C433.077 296.675 429.777 286.55 423.727 280.6C417.677 274.6 408.277 271.6 395.527 271.6C382.877 271.6 373.252 274.45 366.652 280.15C360.102 285.85 356.527 296.025 355.927 310.675C355.727 315.075 355.652 318.7 355.702 321.55C355.752 324.35 355.827 327.725 355.927 331.675C356.127 337.425 357.127 342.525 358.927 346.975C360.777 351.425 363.402 355.125 366.802 358.075C370.202 360.975 374.277 363.075 379.027 364.375L409.777 372.625C419.577 375.225 427.577 380 433.777 386.95C440.027 393.9 443.377 403.1 443.827 414.55C443.927 416.6 443.977 418.575 443.977 420.475C443.977 422.325 443.927 424.375 443.827 426.625C443.777 428.875 443.677 431.65 443.527 434.95C442.877 451.45 438.852 463.35 431.452 470.65C424.102 477.95 412.127 481.6 395.527 481.6ZM395.527 467.2C385.727 467.2 378.477 464.725 373.777 459.775C369.127 454.775 366.577 446.3 366.127 434.35C366.027 430.85 365.977 427.175 365.977 423.325C365.977 419.425 366.052 415.7 366.202 412.15C366.402 408.55 366.627 405.5 366.877 403H375.802C375.602 405.4 375.402 408.275 375.202 411.625C375.052 414.975 374.952 418.6 374.902 422.5C374.902 426.35 374.977 430.225 375.127 434.125C375.477 443.525 377.277 450.2 380.527 454.15C383.777 458.05 388.777 460 395.527 460C402.677 460 407.877 457.975 411.127 453.925C414.377 449.875 416.177 443.225 416.527 433.975C416.677 430.525 416.777 427.75 416.827 425.65C416.927 423.55 416.977 421.75 416.977 420.25C416.977 418.75 416.927 417.175 416.827 415.525C416.727 412.675 416.152 410.15 415.102 407.95C414.102 405.7 412.677 403.825 410.827 402.325C409.027 400.825 406.802 399.725 404.152 399.025L373.027 390.7C363.877 388.25 356.077 384.375 349.627 379.075C343.177 373.775 338.177 367.2 334.627 359.35C331.127 351.45 329.227 342.5 328.927 332.5C328.777 327.65 328.702 323.6 328.702 320.35C328.702 317.1 328.777 313.65 328.927 310C329.827 288.6 335.427 273.25 345.727 263.95C356.077 254.65 372.677 250 395.527 250C417.377 250 433.452 254.55 443.752 263.65C454.102 272.7 459.727 288.15 460.627 310C460.777 313.8 460.777 319.1 460.627 325.9C460.527 332.7 460.327 338.4 460.027 343H451.027C451.327 338.35 451.527 332.75 451.627 326.2C451.777 319.6 451.777 314.325 451.627 310.375C450.827 291.425 446.102 277.825 437.452 269.575C428.802 261.325 414.827 257.2 395.527 257.2C376.177 257.2 361.927 261.225 352.777 269.275C343.677 277.325 338.727 291 337.927 310.3C337.727 314.85 337.652 318.65 337.702 321.7C337.752 324.7 337.827 328.2 337.927 332.2C338.227 340.8 339.852 348.475 342.802 355.225C345.752 361.925 349.927 367.525 355.327 372.025C360.777 376.525 367.352 379.825 375.052 381.925L406.027 390.25C410.127 391.35 413.602 393.05 416.452 395.35C419.352 397.6 421.602 400.4 423.202 403.75C424.802 407.1 425.677 410.925 425.827 415.225C425.927 417.175 425.952 419.025 425.902 420.775C425.902 422.525 425.877 424.45 425.827 426.55C425.777 428.6 425.677 431.15 425.527 434.2C425.027 445.95 422.477 454.4 417.877 459.55C413.277 464.65 405.827 467.2 395.527 467.2ZM491.445 493V253H555.345C568.895 253 580.345 254.725 589.695 258.175C599.095 261.625 606.32 267.6 611.37 276.1C616.47 284.55 619.295 296.35 619.845 311.5C620.095 319.8 620.22 327.6 620.22 334.9C620.27 342.15 620.145 349.95 619.845 358.3C619.295 373.4 616.47 385.2 611.37 393.7C606.32 402.2 599.095 408.175 589.695 411.625C580.345 415.075 568.895 416.8 555.345 416.8H536.445V493H527.445V409H555.345C566.745 409 576.495 407.575 584.595 404.725C592.695 401.825 598.97 396.675 603.42 389.275C607.92 381.875 610.395 371.45 610.845 358C611.045 352.35 611.17 347.1 611.22 342.25C611.32 337.4 611.32 332.55 611.22 327.7C611.17 322.8 611.045 317.5 610.845 311.8C610.395 298.55 607.97 288.225 603.57 280.825C599.17 273.425 592.92 268.25 584.82 265.3C576.77 262.3 566.945 260.8 555.345 260.8H500.445V493H491.445ZM509.445 493V268.6H555.345C564.795 268.6 572.895 269.85 579.645 272.35C586.445 274.8 591.72 279.175 595.47 285.475C599.27 291.775 601.395 300.65 601.845 312.1C602.095 318.45 602.245 325.325 602.295 332.725C602.395 340.125 602.245 348.45 601.845 357.7C601.395 369.15 599.27 378.025 595.47 384.325C591.72 390.625 586.445 395.025 579.645 397.525C572.895 399.975 564.795 401.2 555.345 401.2H518.445V493H509.445ZM518.445 393.4H555.345C566.845 393.4 575.845 390.975 582.345 386.125C588.845 381.225 592.345 371.65 592.845 357.4C593.045 352 593.17 346.9 593.22 342.1C593.32 337.3 593.32 332.5 593.22 327.7C593.17 322.85 593.045 317.75 592.845 312.4C592.345 298.2 588.845 288.65 582.345 283.75C575.845 278.85 566.845 276.4 555.345 276.4H518.445V393.4ZM527.445 385.6V284.2H555.345C564.495 284.2 571.42 286.225 576.12 290.275C580.87 294.325 583.445 301.8 583.845 312.7C584.095 318.15 584.245 323.25 584.295 328C584.345 332.75 584.32 337.475 584.22 342.175C584.17 346.825 584.045 351.8 583.845 357.1C583.445 368 580.87 375.475 576.12 379.525C571.42 383.575 564.495 385.6 555.345 385.6H527.445ZM536.445 377.8H555.345C561.145 377.8 565.795 376.425 569.295 373.675C572.795 370.875 574.645 365.25 574.845 356.8C574.945 350.65 575.02 343.85 575.07 336.4C575.12 328.9 575.045 321.1 574.845 313C574.645 304.55 572.795 298.95 569.295 296.2C565.795 293.4 561.145 292 555.345 292H536.445V377.8Z" fill="url(#paint0_linear_18_24950)" shape-rendering="crispEdges"/>
</g>
<defs>
<filter id="filter0_d_18_24950" x="-79.6" y="-1.52588e-05" width="954.895" height="746" filterUnits="userSpaceOnUse" color-interpolation-filters="sRGB">
<feFlood flood-opacity="0" result="BackgroundImageFix"/>
<feColorMatrix in="SourceAlpha" type="matrix" values="0 0 0 0 0 0 0 0 0 0 0 0 0 0 0 0 0 0 127 0" result="hardAlpha"/>
<feOffset dx="5"/>
<feGaussianBlur stdDeviation="125"/>
<feComposite in2="hardAlpha" operator="out"/>
<feColorMatrix type="matrix" values="0 0 0 0 1 0 0 0 0 1 0 0 0 0 1 0 0 0 0.76 0"/>
<feBlend mode="normal" in2="BackgroundImageFix" result="effect1_dropShadow_18_24950"/>
<feBlend mode="normal" in="SourceGraphic" in2="effect1_dropShadow_18_24950" result="shape"/>
</filter>
<linearGradient id="paint0_linear_18_24950" x1="249.929" y1="242.465" x2="421.773" y2="566.868" gradientUnits="userSpaceOnUse">
<stop stop-color="#F24822"/>
<stop offset="0.494792" stop-color="#FF26C5" stop-opacity="0.75"/>
<stop offset="1" stop-color="#0072C4"/>
</linearGradient>
</defs>
</svg>
